<svg xmlns="http://www.w3.org/2000/svg" xmlns:xlink="http://www.w3.org/1999/xlink" width="533" zoomAndPan="magnify" viewBox="0 0 399.75 262.499992" height="350" preserveAspectRatio="xMidYMid meet" version="1.0"><defs><clipPath id="d2a5d59e32"><path d="M 0.0234375 0.175781 L 368.921875 0.175781 L 368.921875 227 L 0.0234375 227 Z M 0.0234375 0.175781 " clip-rule="nonzero"/></clipPath><clipPath id="ae2478066c"><rect x="0" width="369" y="0" height="228"/></clipPath></defs><g transform="matrix(1, 0, 0, 1, 17, 13)"><g clip-path="url(#ae2478066c)"><g clip-path="url(#d2a5d59e32)"><path fill="#ffffff" d="M 0.105469 24.167969 L 0.105469 47.980469 L 85.476562 47.980469 L 85.476562 220.867188 L 93.410156 221.25 C 97.769531 221.457031 109.53125 221.628906 119.542969 221.628906 L 137.746094 221.628906 L 137.746094 47.980469 L 235.625 47.980469 L 242.292969 41.253906 C 256.125 27.296875 271 15.917969 289.578125 5.078125 L 297.667969 0.359375 L 0.105469 0.359375 Z M 159.0625 63.804688 C 144.988281 95.101562 145.78125 134.445312 161.054688 162.910156 C 194.488281 225.210938 279.867188 244.671875 366.421875 209.722656 L 368.890625 208.726562 L 368.890625 96.921875 L 366.195312 96.554688 C 364.714844 96.351562 340.277344 96.183594 311.894531 96.183594 L 260.285156 96.183594 L 260.285156 140.902344 L 275.292969 140.902344 C 283.546875 140.902344 295.828125 141.074219 302.589844 141.285156 L 314.878906 141.667969 L 314.878906 173.765625 L 308.34375 175.3125 C 281.710938 181.617188 259.542969 179.957031 239.960938 170.1875 C 200.085938 150.300781 192.257812 102.042969 222.609375 63.238281 C 224.167969 61.25 225.441406 59.484375 225.441406 59.316406 C 225.441406 59.152344 210.988281 59.015625 193.328125 59.015625 L 161.21875 59.015625 Z M 159.0625 63.804688 " fill-opacity="1" fill-rule="evenodd"/></g></g></g></svg>